<?xml version="1.0" encoding="utf-8"?>
<!-- Generator: Adobe Illustrator 16.0.3, SVG Export Plug-In . SVG Version: 6.00 Build 0)  -->
<!DOCTYPE svg PUBLIC "-//W3C//DTD SVG 1.1//EN" "http://www.w3.org/Graphics/SVG/1.1/DTD/svg11.dtd">
<svg version="1.1" id="Capa_1" xmlns="http://www.w3.org/2000/svg" xmlns:xlink="http://www.w3.org/1999/xlink" x="0px" y="0px"
	 width="192px" height="192px" viewBox="0 0 192 192" enable-background="new 0 0 192 192" xml:space="preserve">
<path fill="none" stroke="#000000" stroke-width="12" d="M68,45.5v94 M148,45.75v92.801 M52.843,121.48
	c8.37,0,15.157,6.869,15.157,15.345c0,8.472-6.788,15.342-15.157,15.342c-8.37,0-15.155-6.87-15.155-15.342
	C37.688,128.35,44.473,121.48,52.843,121.48z M132.843,121.48c8.37,0,15.157,6.869,15.157,15.345
	c0,8.472-6.787,15.342-15.157,15.342s-15.155-6.87-15.155-15.342C117.688,128.35,124.473,121.48,132.843,121.48z M133.25,30.88H82.5
	 M142.167,54.88H66.395"/>
<path d="M74,47c0-5.523,4.477-10,10-10V25c-12.15,0-22,9.85-22,22H74z"/>
<path d="M154,47c0-12.15-9.85-22-22-22v12c5.523,0,10,4.477,10,10H154z"/>
</svg>
