<?xml version="1.0" encoding="utf-8"?>
<!-- Generator: Adobe Illustrator 16.0.3, SVG Export Plug-In . SVG Version: 6.00 Build 0)  -->
<!DOCTYPE svg PUBLIC "-//W3C//DTD SVG 1.1//EN" "http://www.w3.org/Graphics/SVG/1.1/DTD/svg11.dtd">
<svg version="1.1" id="Capa_1" xmlns="http://www.w3.org/2000/svg" xmlns:xlink="http://www.w3.org/1999/xlink" x="0px" y="0px"
	 width="192px" height="192px" viewBox="0 0 192 192" enable-background="new 0 0 192 192" xml:space="preserve">
<path d="M60,50v6c1.889,0,3.667-0.889,4.8-2.4L60,50z M72,34v-6c-1.889,0-3.667,0.889-4.8,2.4L72,34z M132,50l-4.8,3.6
	c1.133,1.511,2.911,2.4,4.8,2.4V50z M120,34l4.8-3.6c-1.133-1.511-2.911-2.4-4.8-2.4V34z M164,66v76h12V66H164z M154,152H38v12h116
	V152z M28,142V66H16v76H28z M38,56h22V44H38V56z M64.8,53.6l12-16l-9.6-7.2l-12,16L64.8,53.6z M132,56h22V44h-22V56z M136.8,46.4
	l-12-16l-9.6,7.2l12,16L136.8,46.4z M120,28H72v12h48V28z M38,152c-5.523,0-10-4.477-10-10H16c0,12.15,9.85,22,22,22V152z M164,142
	c0,5.523-4.477,10-10,10v12c12.15,0,22-9.85,22-22H164z M176,66c0-12.15-9.85-22-22-22v12c5.523,0,10,4.477,10,10H176z M28,66
	c0-5.523,4.477-10,10-10V44c-12.15,0-22,9.85-22,22H28z"/>
<circle fill="none" stroke="#000000" stroke-width="12" stroke-linecap="round" stroke-linejoin="round" cx="108.131" cy="106.034" r="48.825"/>
<ellipse fill="none" stroke="#000000" stroke-width="12" stroke-linecap="round" stroke-linejoin="round" cx="108.182" cy="105.64" rx="28.318" ry="28.86"/>
</svg>
